# xmcd
#
# Track frame offsets: 
#        150
#        18253
#        37173
#        62631
#        83644
#        104442
#        128916
#        161116
#        188294
#        206721
#        226554
#        244401
#        271917
#        290024
#        306685
#        332092
#
# Disc length: 4776 seconds
#
# Revision: 2
# Processed by: cddbd v1.5.2PL0 Copyright (c) Steve Scherf et al.
# Submitted via: ExactAudioCopyFreeDBPlugin 1.0
#
DISCID=e412a610
DTITLE=Various Artist - Cafe del Mar 30 Years Of Music 1980-2010 - CD
DTITLE=1
DYEAR=2010
DGENRE=Ambient
TTITLE0=Clelia Felix - Magical Moments
TTITLE1=Gary B - Without you
TTITLE2=Deep Josh and Jose Rodriguez - Strangers in the night
TTITLE3=Luminous - Good to be out of the Rain
TTITLE4=Toni Simonen - Parasailing
TTITLE5=Cecile Bredie - Circles
TTITLE6=Javier Esteve - Rainbow over black and white
TTITLE7=Paco Fernández - Pez Volador
TTITLE8=Dab - Waiting 4 you
TTITLE9=Ive Mendes - What we have now
TTITLE10=Bright Sun Spirit - White Sand
TTITLE11=La Caina - A Child is Born
TTITLE12=Elmara - Central Station NY
TTITLE13=Motif - Give it Away
TTITLE14=Elimar and Beach Messiah - Better World
TTITLE15=Coastline - Mediterranean
EXTD=
EXTT0=
EXTT1=
EXTT2=
EXTT3=
EXTT4=
EXTT5=
EXTT6=
EXTT7=
EXTT8=
EXTT9=
EXTT10=
EXTT11=
EXTT12=
EXTT13=
EXTT14=
EXTT15=
PLAYORDER=
